<svg width="40" height="45" viewBox="0 0 40 45" fill="none" xmlns="http://www.w3.org/2000/svg">
<path d="M16.984 29.7614V26.5428C16.984 25.7211 17.6549 25.0551 18.4826 25.0551H21.508C21.9055 25.0551 22.2866 25.2118 22.5677 25.4908C22.8487 25.7698 23.0066 26.1482 23.0066 26.5428V29.7614C23.0041 30.103 23.139 30.4314 23.3814 30.6739C23.6239 30.9163 23.9537 31.0526 24.2978 31.0526H26.3619C27.3259 31.0551 28.2513 30.6767 28.9339 30.0008C29.6164 29.325 30 28.4073 30 27.4503V18.2809C30 17.5079 29.6548 16.7746 29.0575 16.2786L22.0358 10.7114C20.8144 9.73533 19.0643 9.76684 17.8794 10.7863L11.0179 16.2786C10.3924 16.7599 10.0185 17.4954 10 18.2809V27.441C10 29.4356 11.6288 31.0526 13.6381 31.0526H15.655C16.3697 31.0526 16.9505 30.4802 16.9557 29.7708L16.984 29.7614Z" fill="#EE6624"/>
</svg>
