<svg width="21" height="21" viewBox="0 0 21 21" fill="none" xmlns="http://www.w3.org/2000/svg">
<path d="M13.0309 3.66867C12.5314 3.57672 12.0729 3.89572 11.9781 4.38328C11.8834 4.87084 12.2034 5.34661 12.6893 5.44171C14.1522 5.72595 15.2823 6.85751 15.5695 8.32507C15.6513 8.74752 16.0234 9.05551 16.4518 9.05525C16.5092 9.05521 16.5667 9.04993 16.6252 9.03941C17.111 8.94161 17.4304 8.46649 17.335 7.978C16.9063 5.78609 15.2179 4.094 13.0309 3.66867Z" fill="white"/>
<path d="M12.9613 0.0157521C12.7272 -0.0176504 12.4922 0.0516897 12.3052 0.200677C12.1131 0.351765 11.9931 0.569904 11.9671 0.814195C11.912 1.30802 12.2686 1.75441 12.7618 1.80967C16.1629 2.18706 18.8079 4.83469 19.1924 8.2459C19.2439 8.70297 19.6276 9.04765 20.0852 9.04736C20.1197 9.04734 20.1531 9.04522 20.1876 9.04101C20.4268 9.01465 20.6399 8.89605 20.7902 8.70724C20.9395 8.51844 21.0073 8.28356 20.98 8.0435C20.5009 3.78734 17.2045 0.485929 12.9613 0.0157521Z" fill="white"/>
<path fill-rule="evenodd" clip-rule="evenodd" d="M9.48179 11.5208C13.6694 15.702 14.6157 10.8612 17.282 13.5222C19.8525 16.0888 21.3293 16.6024 18.0766 19.8583C17.6691 20.1862 15.0813 24.1295 5.97247 15.0346C-3.13744 5.93859 0.800405 3.3432 1.12788 2.93543C4.38846 -0.32944 4.89505 1.1553 7.46552 3.72185C10.1318 6.38405 5.2942 7.33957 9.48179 11.5208Z" fill="white"/>
</svg>
