<svg width="224" height="67" viewBox="0 0 224 67" fill="none" xmlns="http://www.w3.org/2000/svg">
<g clip-path="url(#clip0_1428_9514)">
<path d="M223.575 23.6794C223.603 14.8758 216.645 7.72839 208.039 7.69934C200.598 7.67028 194.208 13.0454 192.731 20.4834H192.93C194.407 14.44 200.399 10.7791 206.278 12.29C211.22 13.5684 214.657 18.13 214.628 23.3307C214.657 25.5098 214.174 27.6889 213.208 29.6356C213.151 29.7518 213.095 29.868 213.066 30.0133C208.834 38.7878 198.44 42.3615 189.862 38.0033C184.012 35.0398 180.291 28.9383 180.234 22.2557H180.092C179.723 34.6039 189.238 44.9183 201.308 45.267C211.391 45.5575 220.365 38.7878 223.035 28.8221C223.546 27.1659 223.745 25.4227 223.631 23.6794" fill="white"/>
<path d="M205.425 0.251519C195.258 -1.31743 185.403 4.58066 181.711 14.4011C181.711 14.4011 181.625 14.6917 181.512 15.1275C181.426 15.389 181.313 15.6505 181.228 15.941C180.66 18.033 180.404 20.183 180.461 22.3621H180.518C181.029 31.1657 188.413 37.8482 197.019 37.3252C203.92 36.8894 209.714 31.863 211.276 24.977H211.077C209.345 30.9332 203.21 34.3326 197.36 32.5603C192.645 31.1366 189.436 26.6622 189.492 21.6357H189.407C189.436 20.183 189.663 18.7303 190.146 17.3647C193.327 8.15438 203.21 3.30226 212.242 6.55638C219.257 9.08413 223.886 15.912 223.773 23.5243H223.915C224.539 12.0477 216.53 1.9948 205.425 0.251519Z" fill="white"/>
<path d="M38.512 44.5697L38.3416 2.32423L20.2784 18.6239L0 2.1499V9.70411V13.3359V44.8312H9.25878V20.9483L20.2216 29.9552L29.8212 21.4422V44.5697H38.512Z" fill="white"/>
<path d="M105.028 2.96362H76.4844V12.3773H86.4816V44.657H95.0019V12.3773H105.028V2.96362Z" fill="white"/>
<path d="M161.661 21.6749L173.731 44.6571H182.791L161.632 2.06299L140.246 44.6571H149.988L161.632 21.7911L161.661 21.6749Z" fill="white"/>
<path d="M156.805 44.6569L161.661 34.6912L166.546 44.6569H156.805Z" fill="white"/>
<path d="M74.2652 44.6571H83.3251L62.1663 2.06299L40.8086 44.6571H50.5218L62.1663 20.3384L74.2652 44.6571Z" fill="white"/>
<path d="M57.3125 44.6567L62.2259 33.4707L67.0825 44.6567H57.3125Z" fill="white"/>
<path d="M137.775 22.4302C141.694 16.9098 140.502 9.2103 135.105 5.20076C133.344 3.8933 131.271 3.10882 129.084 2.90544C128.516 2.84733 127.948 2.78922 127.38 2.81828H107.727V44.5117H130.362C137.037 44.5117 142.433 38.9913 142.433 32.1635C142.433 28.3573 140.7 24.7836 137.775 22.4302ZM129.539 35.6791H116.19V10.2563H127.125C129.51 10.14 131.555 11.9995 131.669 14.4401C131.782 16.8807 129.965 18.9727 127.579 19.0889C127.437 19.0889 127.267 19.0889 127.125 19.0889H121.359V26.8755H129.453C131.839 26.9917 133.685 29.0837 133.572 31.5243C133.458 33.7905 131.697 35.5919 129.453 35.7372" fill="white"/>
<path d="M101.534 61.3924C101.534 64.356 99.3754 66.5641 95.7401 66.5641H88.2422V49.3057H94.2916C98.1542 49.3057 100.739 50.6422 100.739 53.8091C100.739 55.5234 99.8299 56.7727 98.6938 57.2666C100.767 57.8477 101.534 59.591 101.534 61.3924ZM91.4799 55.9011H94.4904C96.3933 55.9011 97.501 55.3781 97.501 54.245C97.501 52.9084 96.3933 52.5888 94.4904 52.5888H91.4799V55.9011ZM98.3246 61.0437C98.3246 59.5038 96.9897 58.7775 94.9165 58.7775H91.5083V63.2809H94.9165C96.9897 63.2809 98.3246 62.6127 98.3246 61.0437Z" fill="white"/>
<path d="M116.128 55.0875C116.128 58.0221 114.055 60.8404 110.505 60.8404H106.869V66.5932H103.66V49.3347H109.71C114.112 49.3347 116.128 51.7463 116.128 55.0875ZM112.919 55.0875C112.919 53.4605 111.669 52.6179 110.107 52.6179H106.898V57.5572H110.107C111.669 57.5572 112.919 56.5112 112.919 55.0875Z" fill="white"/>
<path d="M135.047 57.964C135.047 62.9323 131.07 67 126.185 67C121.3 67 117.324 62.9323 117.324 57.964C117.324 52.9956 121.3 48.928 126.185 48.928C131.07 48.928 135.047 52.9666 135.047 57.964ZM131.809 57.964C131.809 54.768 129.281 52.2112 126.185 52.2112C123.061 52.2112 120.562 54.768 120.562 57.964C120.562 61.16 123.09 63.7168 126.185 63.7168C129.31 63.7168 131.809 61.1309 131.809 57.964Z" fill="white"/>
<path d="M83.329 57.9639H0V60.5788H83.329V57.9639Z" fill="white"/>
<path d="M224.001 57.9641H140.672V60.579H224.001V57.9641Z" fill="white"/>
</g>
<defs>
<clipPath id="clip0_1428_9514">
<rect width="224" height="67" fill="white"/>
</clipPath>
</defs>
</svg>
