<svg width="172" height="51" viewBox="0 0 172 51" fill="none" xmlns="http://www.w3.org/2000/svg">
<g clip-path="url(#clip0_530_7048)">
<path d="M171.673 18.0246C171.695 11.3234 166.352 5.8828 159.744 5.86068C154.031 5.83857 149.124 9.93007 147.99 15.5918H148.143C149.277 10.9916 153.878 8.205 158.392 9.35505C162.187 10.3282 164.826 13.8004 164.804 17.7592C164.826 19.4179 164.455 21.0766 163.714 22.5584C163.67 22.6469 163.626 22.7354 163.604 22.8459C160.355 29.525 152.373 32.2453 145.787 28.9279C141.295 26.672 138.438 22.0276 138.394 16.9409H138.285C138.002 26.3403 145.308 34.1916 154.576 34.457C162.318 34.6781 169.209 29.525 171.259 21.9392C171.652 20.6786 171.804 19.3516 171.717 18.0246" fill="#E32227"/>
<path d="M157.738 0.191455C149.93 -1.00282 142.363 3.48677 139.528 10.9621C139.528 10.9621 139.463 11.1832 139.375 11.515C139.31 11.714 139.223 11.913 139.157 12.1342C138.721 13.7266 138.525 15.3632 138.568 17.0219H138.612C139.005 23.7231 144.675 28.8098 151.283 28.4117C156.582 28.08 161.031 24.2539 162.23 19.0124H162.078C160.747 23.5462 156.037 26.1338 151.544 24.7847C147.924 23.701 145.46 20.2951 145.503 16.469H145.438C145.46 15.3632 145.634 14.2574 146.005 13.2179C148.447 6.20707 156.037 2.51366 162.972 4.99067C168.358 6.91478 171.913 12.1121 171.826 17.9065H171.935C172.415 9.17064 166.265 1.51843 157.738 0.191455Z" fill="#EE6624"/>
<path d="M29.5717 33.9262L29.4409 1.76917L15.5709 14.1764L0 1.63647V7.38669V10.1512V34.1252H7.10942V15.9457L15.5273 22.8017L22.8984 16.3216V33.9262H29.5717Z" fill="#E32227"/>
<path d="M80.6475 2.25586H58.7305V9.42151H66.4069V33.9926H72.9493V9.42151H80.6475V2.25586Z" fill="#E32227"/>
<path d="M124.131 16.4988L133.399 33.9927H140.356L124.109 1.57031L107.688 33.9927H115.168L124.109 16.5872L124.131 16.4988Z" fill="#E32227"/>
<path d="M120.402 33.9926L124.132 26.4067L127.883 33.9926H120.402Z" fill="#EE6624"/>
<path d="M57.0278 33.9927H63.9845L47.7375 1.57031L31.3379 33.9927H38.7962L47.7375 15.4814L57.0278 33.9927Z" fill="#E32227"/>
<path d="M44.0078 33.9925L47.7806 25.4778L51.5098 33.9925H44.0078Z" fill="#EE6624"/>
<path d="M105.792 17.0737C108.801 12.8717 107.885 7.01086 103.742 3.95882C102.39 2.96359 100.798 2.36645 99.1184 2.21164C98.6822 2.1674 98.2461 2.12317 97.8099 2.14529H82.7188V33.8821H100.1C105.225 33.8821 109.368 29.68 109.368 24.4827C109.368 21.5854 108.038 18.8651 105.792 17.0737ZM99.4673 27.1587H89.2175V7.80704H97.6136C99.4455 7.71857 101.016 9.13401 101.103 10.9918C101.19 12.8495 99.7944 14.4419 97.9626 14.5304C97.8535 14.5304 97.7227 14.5304 97.6136 14.5304H93.1866V20.4575H99.4019C101.234 20.546 102.651 22.1383 102.564 23.9961C102.477 25.7212 101.125 27.0924 99.4019 27.203" fill="#E32227"/>
<path d="M77.964 46.7316C77.964 48.9875 76.3066 50.6683 73.5151 50.6683H67.7578V37.5312H72.4029C75.3688 37.5312 77.3533 38.5486 77.3533 40.9593C77.3533 42.2641 76.6555 43.2151 75.7832 43.5911C77.3752 44.0334 77.964 45.3604 77.964 46.7316ZM70.2439 42.5516H72.5556C74.0167 42.5516 74.8672 42.1535 74.8672 41.291C74.8672 40.2737 74.0167 40.0304 72.5556 40.0304H70.2439V42.5516ZM75.4997 46.4662C75.4997 45.294 74.4747 44.7411 72.8827 44.7411H70.2657V48.1692H72.8827C74.4747 48.1692 75.4997 47.6605 75.4997 46.4662Z" fill="#EE6624"/>
<path d="M89.1733 41.9322C89.1733 44.166 87.5814 46.3112 84.8553 46.3112H82.0639V50.6903H79.5996V37.5532H84.2447C87.625 37.5532 89.1733 39.3889 89.1733 41.9322ZM86.709 41.9322C86.709 40.6937 85.7495 40.0524 84.55 40.0524H82.0857V43.8121H84.55C85.7495 43.8121 86.709 43.0159 86.709 41.9322Z" fill="#EE6624"/>
<path d="M103.698 44.1218C103.698 47.9037 100.645 50.9999 96.8939 50.9999C93.143 50.9999 90.0898 47.9037 90.0898 44.1218C90.0898 40.3399 93.143 37.2437 96.8939 37.2437C100.645 37.2437 103.698 40.3178 103.698 44.1218ZM101.212 44.1218C101.212 41.689 99.271 39.7428 96.8939 39.7428C94.4951 39.7428 92.576 41.689 92.576 44.1218C92.576 46.5546 94.5169 48.5008 96.8939 48.5008C99.2928 48.5008 101.212 46.5325 101.212 44.1218Z" fill="#EE6624"/>
<path d="M63.9848 44.1218H0V46.1123H63.9848V44.1218Z" fill="#EE6624"/>
<path d="M172 44.1218H108.016V46.1123H172V44.1218Z" fill="#EE6624"/>
</g>
<defs>
<clipPath id="clip0_530_7048">
<rect width="172" height="51" fill="white"/>
</clipPath>
</defs>
</svg>
